<?xml version="1.0" standalone="no"?>
<!DOCTYPE svg PUBLIC "-//W3C//DTD SVG 20010904//EN"
 "http://www.w3.org/TR/2001/REC-SVG-20010904/DTD/svg10.dtd">
<svg version="1.0" xmlns="http://www.w3.org/2000/svg"
 width="512.000000pt" height="512.000000pt" viewBox="0 0 512.000000 512.000000"
 preserveAspectRatio="xMidYMid meet">

<g transform="translate(0.000000,512.000000) scale(0.100000,-0.100000)"
fill="#000000" stroke="none">
<path d="M1161 4784 c-169 -45 -301 -180 -346 -351 -23 -86 -23 -3660 0 -3746
45 -173 178 -307 350 -352 52 -13 228 -15 1395 -15 1167 0 1343 2 1395 15 172
45 305 179 350 352 23 86 23 3660 0 3746 -45 173 -178 307 -350 352 -86 22
-2710 22 -2794 -1z m2765 -330 c15 -11 37 -33 48 -48 21 -27 21 -39 24 -617
l2 -589 -1440 0 -1440 0 0 574 c0 383 4 584 11 603 14 37 47 73 84 89 25 11
266 13 1357 11 1323 -2 1327 -2 1354 -23z m72 -2643 c-3 -1063 -3 -1070 -24
-1097 -11 -15 -33 -37 -48 -48 -27 -21 -30 -21 -1366 -21 -1336 0 -1339 0
-1366 21 -15 11 -37 33 -48 48 -21 27 -21 34 -24 1097 l-2 1069 1440 0 1440 0
-2 -1069z"/>
<path d="M1535 2546 c-95 -42 -124 -169 -58 -247 51 -61 129 -75 197 -36 61
34 81 68 81 137 0 63 -16 95 -67 133 -33 25 -113 32 -153 13z"/>
<path d="M2175 2546 c-86 -40 -119 -139 -72 -220 34 -61 68 -81 137 -81 69 0
103 20 137 81 40 70 24 149 -41 199 -44 33 -115 43 -161 21z"/>
<path d="M2815 2546 c-101 -44 -125 -178 -46 -257 112 -113 296 -12 267 146
-18 93 -131 150 -221 111z"/>
<path d="M3455 2546 c-41 -18 -83 -69 -90 -109 -3 -18 -5 -334 -3 -704 3 -660
3 -672 24 -699 39 -53 71 -69 134 -69 63 0 95 16 134 69 21 27 21 36 21 726 0
690 0 699 -21 726 -11 15 -32 37 -46 47 -33 25 -113 32 -153 13z"/>
<path d="M1535 1906 c-95 -42 -124 -169 -58 -247 51 -61 129 -75 197 -36 61
34 81 68 81 137 0 63 -16 95 -67 133 -33 25 -113 32 -153 13z"/>
<path d="M2175 1906 c-86 -40 -119 -139 -72 -220 34 -61 68 -81 137 -81 69 0
103 20 137 81 40 70 24 149 -41 199 -44 33 -115 43 -161 21z"/>
<path d="M2815 1906 c-41 -18 -83 -69 -91 -111 -10 -56 4 -102 44 -144 110
-116 298 -15 268 144 -18 93 -131 150 -221 111z"/>
<path d="M1535 1266 c-95 -42 -124 -169 -58 -247 51 -61 129 -75 197 -36 61
34 81 68 81 137 0 63 -16 95 -67 133 -33 25 -113 32 -153 13z"/>
<path d="M2175 1266 c-86 -40 -119 -139 -72 -220 34 -61 68 -81 137 -81 69 0
103 20 137 81 40 70 24 149 -41 199 -44 33 -115 43 -161 21z"/>
<path d="M2815 1266 c-101 -44 -125 -178 -46 -257 112 -113 296 -12 267 146
-18 93 -131 150 -221 111z"/>
</g>
</svg>
